<svg version="1.1" id="Layer_1" xmlns="http://www.w3.org/2000/svg" xmlns:xlink="http://www.w3.org/1999/xlink" x="0px" y="0px"
	 width="100%" viewBox="0 0 1024 1024" enable-background="new 0 0 1024 1024" xml:space="preserve">
<path fill="#050605" opacity="1.000000" stroke="none" 
	d="
M449.000000,1025.000000 
	C299.333344,1025.000000 150.166672,1025.000000 1.000000,1025.000000 
	C1.000000,683.666687 1.000000,342.333344 1.000000,1.000000 
	C342.333344,1.000000 683.666687,1.000000 1025.000000,1.000000 
	C1025.000000,342.333344 1025.000000,683.666687 1025.000000,1025.000000 
	C833.166687,1025.000000 641.333313,1025.000000 449.000000,1025.000000 
M346.042419,477.378204 
	C345.702759,477.223236 345.363068,477.068268 345.070343,476.978058 
	C345.070343,476.978058 345.129944,476.924683 345.024628,476.303101 
	C344.367371,475.826874 343.710114,475.350677 343.021606,474.945984 
	C343.021606,474.945984 343.099396,474.952972 342.783051,474.389648 
	C342.194153,474.230743 341.605286,474.071808 341.003235,473.981567 
	C341.003235,473.981567 341.072754,473.973785 340.987946,473.308441 
	C340.575775,473.134979 340.163605,472.961517 339.358612,472.212128 
	C335.760132,471.769806 332.132874,471.484650 328.572754,470.832764 
	C325.972992,470.356689 322.576141,472.895142 320.909790,468.498779 
	C320.909790,468.498779 320.852112,468.066101 321.007477,467.131714 
	C320.957611,437.060394 320.907745,406.989044 320.946259,376.091644 
	C320.894257,374.434692 320.842285,372.777771 320.816833,370.335968 
	C318.367493,357.362885 310.917084,349.773529 298.032227,347.968781 
	C282.535248,347.951233 267.038177,347.901062 251.541275,347.923431 
	C225.716476,347.960724 199.891754,348.044464 173.303223,348.053955 
	C166.522568,349.669434 160.776215,352.794403 156.983139,359.507843 
	C156.983139,359.507843 156.883438,359.970612 156.960266,359.977325 
	C156.960266,359.977325 156.953476,359.900513 156.408279,360.216187 
	C156.236343,360.808807 156.064423,361.401428 155.967560,361.989075 
	C155.967560,361.989075 155.951279,361.915588 155.331146,362.333160 
	C154.556137,366.375763 153.172867,370.409271 153.112244,374.462555 
	C152.860550,391.290344 153.001862,408.124084 153.010040,424.955658 
	C153.040665,487.947723 153.075668,550.939758 152.600372,614.620239 
	C150.286102,614.718811 147.969376,614.937927 145.658051,614.891174 
	C140.648819,614.789856 136.308701,616.440674 135.456024,621.628113 
	C134.193039,629.311829 134.024994,636.283508 139.732605,639.214783 
	C140.439026,639.577576 141.287048,639.664673 142.990219,639.997131 
	C172.980225,640.010620 202.970245,640.051453 232.960236,640.030273 
	C265.613678,640.007141 298.267090,639.926575 331.647522,639.910400 
	C340.684601,636.891846 338.336243,629.172607 337.866089,623.022095 
	C337.045135,612.282349 327.516235,615.905334 321.318359,614.555969 
	C321.318359,571.561218 321.318359,528.977173 321.318359,486.433838 
	C330.479797,485.183624 333.493500,486.940643 336.792480,496.137543 
	C336.781982,521.422180 336.738129,546.706909 336.784485,571.991394 
	C336.795990,578.273987 337.099335,584.556091 337.251862,591.591431 
	C341.013794,605.624451 349.486633,615.115662 363.994659,618.076782 
	C377.057159,620.742920 388.053192,616.287903 396.373840,606.159485 
	C406.665863,593.631470 407.058197,578.715515 403.709045,563.979370 
	C400.628845,550.426514 395.686523,537.296936 391.425232,523.046936 
	C391.283966,520.390503 391.028564,517.734497 391.019073,515.077576 
	C390.921417,487.759125 390.863525,460.440521 390.795197,432.348297 
	C389.692993,425.384064 386.583527,419.483673 381.610443,414.477234 
	C379.512756,412.365448 377.746429,409.928009 375.777710,407.683990 
	C367.227478,397.937988 358.791473,388.084930 349.972290,378.588043 
	C348.393585,376.888031 344.795868,375.401276 342.828308,376.023376 
	C335.822021,378.238586 333.532318,388.353699 338.306458,393.906464 
	C340.583282,396.554504 342.671906,399.419647 345.242188,401.749115 
	C351.580780,407.493896 354.430084,414.150848 353.159027,422.904633 
	C352.353577,428.451965 353.247711,434.224426 352.920074,439.869263 
	C352.631409,444.842377 354.648926,448.443451 358.788086,450.532074 
	C366.538208,454.442780 371.433228,460.473633 373.841919,469.713501 
	C373.949188,487.110016 374.056458,504.506561 374.171478,522.705750 
	C376.817627,531.951416 379.237549,541.269531 382.169891,550.423523 
	C385.475922,560.744019 388.734985,570.931213 387.909760,582.061035 
	C387.027618,593.958435 380.924408,601.157227 370.706421,601.294006 
	C361.679932,601.414856 356.590698,597.102234 353.660797,586.004700 
	C353.635590,557.239319 353.796387,528.471558 353.424835,499.710602 
	C353.352417,494.104462 351.211151,488.525055 349.998199,482.990417 
	C349.998199,482.990417 350.059937,482.979248 349.906677,482.366821 
	C349.287323,481.544250 348.667969,480.721649 348.024963,479.971985 
	C348.024963,479.971985 348.100342,479.985870 347.934387,479.450134 
	C347.629089,479.272308 347.323761,479.094482 347.017914,478.989136 
	C347.017914,478.989136 347.089539,478.978180 347.012848,478.394287 
	C346.683533,478.235321 346.354248,478.076385 346.013672,477.987518 
	C346.013672,477.987518 346.083405,477.974274 346.042419,477.378204 
M712.580688,431.950226 
	C713.862244,436.442535 716.104126,440.904175 716.248779,445.432831 
	C716.720093,460.185272 716.425232,474.962219 716.425232,489.779602 
	C723.791321,489.779602 730.716675,489.779602 737.997620,489.779602 
	C737.997620,473.445770 738.166565,457.325958 737.900635,441.213257 
	C737.814331,435.985291 736.935852,430.698730 735.791565,425.579376 
	C734.562805,420.081696 731.373413,415.717804 726.266235,412.903290 
	C713.872253,406.072998 696.255737,408.890381 686.057617,421.853577 
	C676.102478,403.753143 650.114502,405.609283 637.862671,422.052856 
	C637.862671,418.009247 637.862671,414.463104 637.862671,410.694580 
	C630.730774,410.694580 623.992371,410.694580 617.244507,410.694580 
	C617.244507,437.199036 617.244507,463.444366 617.244507,489.684113 
	C624.030823,489.684113 630.567749,489.684113 637.965942,489.684113 
	C637.965942,473.620728 637.725403,457.868164 638.059998,442.127899 
	C638.248108,433.280457 645.166931,427.735016 654.467529,428.004669 
	C662.212524,428.229187 666.841431,433.651550 666.857361,442.613312 
	C666.883179,457.105255 666.862000,471.597260 666.881836,486.089203 
	C666.883545,487.338470 667.042908,488.587555 667.121582,489.729218 
	C673.914917,489.729218 680.330261,489.729218 686.605713,489.729218 
	C686.808899,489.320190 686.938416,489.180878 686.938843,489.041168 
	C686.964172,480.712891 686.876465,472.382721 687.025696,464.056793 
	C687.156250,456.774353 687.122375,449.448761 687.926270,442.227448 
	C689.334717,429.575836 702.300415,423.916351 712.580688,431.950226 
M439.008667,380.713623 
	C439.008667,417.120758 439.008667,453.527893 439.008667,489.780823 
	C447.014374,489.780823 454.298859,489.780823 462.082886,489.780823 
	C462.082886,477.877777 462.082886,466.181122 462.082886,454.025055 
	C470.726410,454.025055 478.868530,454.219055 486.998169,453.982910 
	C501.898010,453.550049 514.000610,444.801910 519.140320,431.079590 
	C524.752014,416.097382 521.478394,399.312500 510.945221,389.474335 
	C502.304596,381.403839 491.438080,379.440704 480.270264,379.096558 
	C467.782257,378.711731 455.273285,378.984711 442.773682,379.036652 
	C441.535553,379.041809 440.299316,379.500580 439.008667,380.713623 
M736.247131,546.058411 
	C718.972778,540.729553 701.629883,546.032227 693.051575,560.252869 
	C683.357422,576.323303 682.874939,593.192749 692.242615,609.586975 
	C700.259338,623.617065 718.138489,632.601135 735.669189,624.903931 
	C740.522400,622.773010 744.579956,618.829956 749.223389,615.562866 
	C749.223389,618.673523 749.223389,621.917297 749.223389,624.916992 
	C756.543213,624.916992 763.452576,624.916992 770.017944,624.916992 
	C770.017944,588.074097 770.017944,551.550903 770.017944,515.149719 
	C762.690125,515.149719 755.961914,515.149719 748.713257,515.149719 
	C748.713257,528.892761 748.713257,542.360229 748.713257,555.114624 
	C744.784790,552.175232 740.879272,549.253052 736.247131,546.058411 
M779.736267,486.890015 
	C793.935364,495.444397 812.696411,493.316010 824.313904,481.341217 
	C836.895081,468.373108 838.922485,452.440338 833.665527,436.157013 
	C825.778625,411.727448 799.918945,403.477783 781.243835,413.655945 
	C778.343201,415.236847 775.920105,417.693878 772.816162,420.102814 
	C772.816162,416.667603 772.816162,413.752167 772.816162,410.713928 
	C765.713318,410.713928 758.956665,410.713928 752.253906,410.713928 
	C752.253906,443.545959 752.253906,476.123352 752.253906,508.741882 
	C759.242432,508.741882 765.977051,508.741882 773.054077,508.741882 
	C773.054077,499.438660 773.054077,490.382843 773.054077,480.716919 
	C775.400330,482.953888 777.257080,484.724152 779.736267,486.890015 
M447.526703,625.149048 
	C452.275208,625.149048 457.023682,625.149048 462.147339,625.149048 
	C462.147339,610.496826 462.147339,596.436768 462.147339,582.103882 
	C476.145996,582.103882 489.748932,582.103882 503.494995,582.103882 
	C503.494995,574.944580 503.494995,568.071350 503.494995,560.763184 
	C489.468414,560.763184 475.728760,560.763184 462.233917,560.763184 
	C462.233917,551.923035 462.233917,543.523193 462.233917,534.779907 
	C478.293854,534.779907 494.037872,534.779907 509.747314,534.779907 
	C509.747314,528.000000 509.747314,521.579468 509.747314,515.135986 
	C486.106415,515.135986 462.714996,515.135986 439.294189,515.135986 
	C439.294189,551.916016 439.294189,588.461182 439.294189,625.148010 
	C441.902039,625.148010 444.220398,625.148010 447.526703,625.149048 
M536.867554,484.651184 
	C543.451294,491.964691 551.815552,492.991455 560.914795,491.495514 
	C569.816040,490.032104 576.906372,485.449036 583.155518,477.191498 
	C583.155518,482.472534 583.155518,486.076813 583.155518,489.756531 
	C590.191528,489.756531 596.925049,489.756531 603.719482,489.756531 
	C603.719482,463.288452 603.719482,437.066376 603.719482,410.703461 
	C596.731079,410.703461 589.984863,410.703461 582.997864,410.703461 
	C582.997864,422.952637 583.082642,434.931763 582.952454,446.908569 
	C582.906006,451.185242 582.715454,455.526489 581.932861,459.715393 
	C580.223694,468.863770 572.453735,474.243805 563.040955,473.242310 
	C554.774963,472.362823 550.513550,466.756287 550.508301,456.716370 
	C550.500366,441.440918 550.506226,426.165466 550.506226,410.773560 
	C543.245850,410.773560 536.359070,410.773560 529.434937,410.773560 
	C529.434937,428.398560 529.332397,445.707092 529.481934,463.013458 
	C529.548279,470.699890 530.540405,478.244629 536.867554,484.651184 
M516.008484,604.139893 
	C517.025452,614.328735 521.621582,622.518250 531.602295,625.530151 
	C546.093445,629.903320 558.864868,626.338928 569.106384,612.871643 
	C569.106384,617.799072 569.106384,621.371277 569.106384,624.882935 
	C576.574402,624.882935 583.621704,624.882935 590.594604,624.882935 
	C590.594604,598.530701 590.594604,572.486267 590.594604,546.465027 
	C583.232788,546.465027 576.181091,546.465027 569.002991,546.465027 
	C569.002991,562.105408 569.032898,577.418640 568.992188,592.731750 
	C568.966309,602.465088 560.295288,609.680054 551.530701,609.122681 
	C542.288574,608.534973 537.005737,603.186951 536.997620,593.003357 
	C536.987915,580.849121 536.995483,568.694885 536.995544,556.540649 
	C536.995544,553.118286 536.995544,549.695862 536.995544,546.459290 
	C529.572998,546.459290 522.841003,546.459290 516.005615,546.459290 
	C516.005615,565.591614 516.005615,584.401672 516.008484,604.139893 
M603.768005,594.499268 
	C603.768005,604.621338 603.768005,614.743469 603.768005,624.853394 
	C610.708923,624.853394 617.256409,624.853394 623.994507,624.853394 
	C623.994507,610.076843 623.750916,595.601807 624.064636,581.138855 
	C624.363953,567.339355 635.023865,561.184509 645.430908,564.051453 
	C652.112976,565.892212 655.148376,570.998840 655.197021,579.469788 
	C655.283813,594.580566 655.221436,609.692139 655.221436,624.920715 
	C662.630005,624.920715 669.671143,624.920715 676.992188,624.920715 
	C676.992188,606.873718 677.473267,589.065552 676.808899,571.300232 
	C676.419922,560.900574 672.824158,551.134399 661.808167,547.164673 
	C650.143433,542.961182 638.999695,544.514587 629.262634,552.695251 
	C627.482056,554.191101 626.089844,556.149231 623.704224,558.797852 
	C623.704224,553.762024 623.704224,550.030029 623.704224,546.371521 
	C616.859131,546.371521 610.440002,546.371521 603.765991,546.371521 
	C603.765991,562.227783 603.765991,577.863525 603.768005,594.499268 
M799.604614,608.060059 
	C797.159729,606.522278 794.714905,604.984436 792.063660,603.316833 
	C788.428955,607.439392 784.607361,611.773804 780.650024,616.262268 
	C781.462646,617.016174 781.973328,617.687622 782.645996,618.084961 
	C796.346985,626.177551 810.862793,629.474609 826.569885,625.311646 
	C841.081909,621.465454 844.274597,613.632385 844.865601,605.606812 
	C845.618713,595.379333 841.550903,584.926636 829.878418,580.307739 
	C822.877930,577.537720 815.636169,575.351807 808.747437,572.343323 
	C807.014038,571.586304 805.114075,568.557007 805.305908,566.790833 
	C805.498169,565.019958 807.932129,562.697876 809.863892,562.050415 
	C817.558228,559.471924 824.733032,561.224915 831.274963,566.175110 
	C835.209778,561.548279 839.030518,557.055664 842.878113,552.531311 
	C825.786865,541.921509 809.995178,542.897888 797.601990,546.962952 
	C780.768127,552.484680 777.614868,576.075684 790.888794,585.165588 
	C795.286987,588.177429 800.609131,589.885559 805.599121,591.974121 
	C810.137146,593.873352 815.038269,595.044861 819.301575,597.401306 
	C821.400146,598.561279 823.982422,602.065430 823.547058,603.810669 
	C822.944336,606.227173 820.045227,608.766602 817.524170,609.868225 
	C811.738647,612.396423 805.886047,610.845703 799.604614,608.060059 
z"/>
<path fill="#39954F" opacity="1.000000" stroke="none" 
	d="
M142.069458,639.879517 
	C141.287048,639.664673 140.439026,639.577576 139.732605,639.214783 
	C134.024994,636.283508 134.193039,629.311829 135.456024,621.628113 
	C136.308701,616.440674 140.648819,614.789856 145.658051,614.891174 
	C147.969376,614.937927 150.286102,614.718811 153.134949,613.977051 
	C153.780884,611.351624 153.989212,609.369263 153.989624,607.386963 
	C154.004456,536.296082 153.918564,465.205078 154.085220,394.114624 
	C154.110382,383.380219 155.300201,372.648529 155.951279,361.915588 
	C155.951279,361.915588 155.967560,361.989075 156.204651,361.833496 
	C156.612320,361.085480 156.782913,360.492981 156.953491,359.900513 
	C156.953476,359.900513 156.960266,359.977325 157.097107,359.924988 
	C157.330597,359.803894 157.519577,359.698242 157.509201,359.672333 
	C157.427795,359.468719 157.308258,359.280365 157.200470,359.087311 
	C160.776215,352.794403 166.522568,349.669434 173.980957,348.366150 
	C175.640274,348.789429 176.621811,348.997223 177.603455,348.997650 
	C216.659042,349.014740 255.714630,349.022827 294.770142,348.974060 
	C296.166779,348.972321 297.562653,348.384857 298.958893,348.070374 
	C310.917084,349.773529 318.367493,357.362885 320.564148,370.979797 
	C320.493622,373.388306 320.675751,375.153015 320.857880,376.917725 
	C320.907745,406.989044 320.957611,437.060394 320.789429,467.674011 
	C320.571411,468.216278 320.492493,468.630859 320.492493,468.630859 
	C320.492493,468.630859 320.841125,468.929840 320.841125,468.929840 
	C322.576141,472.895142 325.972992,470.356689 328.572754,470.832764 
	C332.132874,471.484650 335.760132,471.769806 339.730896,472.751831 
	C340.426392,473.518951 340.749573,473.746368 341.072754,473.973785 
	C341.072754,473.973785 341.003235,473.981567 341.171753,474.214844 
	C341.926666,474.616394 342.513031,474.784698 343.099396,474.952972 
	C343.099396,474.952972 343.021606,474.945984 343.057892,475.251251 
	C343.772766,476.012573 344.451355,476.468628 345.129944,476.924683 
	C345.129944,476.924683 345.070343,476.978058 345.148865,477.188110 
	C345.512726,477.590210 345.798065,477.782257 346.083405,477.974274 
	C346.083405,477.974274 346.013672,477.987518 346.121979,478.195190 
	C346.516693,478.594604 346.803131,478.786407 347.089539,478.978180 
	C347.089539,478.978180 347.017914,478.989136 347.128174,479.194336 
	C347.525726,479.594971 347.813019,479.790405 348.100342,479.985870 
	C348.100342,479.985870 348.024963,479.971985 348.027161,480.299774 
	C348.706207,481.411469 349.383087,482.195343 350.059937,482.979248 
	C350.059937,482.979248 349.998199,482.990417 350.015320,483.381989 
	C350.692047,488.676300 351.889771,493.575500 351.922211,498.482391 
	C352.106110,526.278625 351.980652,554.076782 352.085449,581.873779 
	C352.091827,583.560791 353.173157,585.243713 353.754303,586.928528 
	C356.590698,597.102234 361.679932,601.414856 370.706421,601.294006 
	C380.924408,601.157227 387.027618,593.958435 387.909760,582.061035 
	C388.734985,570.931213 385.475922,560.744019 382.169891,550.423523 
	C379.237549,541.269531 376.817627,531.951416 374.442200,522.003662 
	C374.803253,504.636841 374.911682,487.972046 374.932526,471.307159 
	C374.933594,470.444305 374.186768,469.580536 373.788147,468.717194 
	C371.433228,460.473633 366.538208,454.442780 358.788086,450.532074 
	C354.648926,448.443451 352.631409,444.842377 352.920074,439.869263 
	C353.247711,434.224426 352.353577,428.451965 353.159027,422.904633 
	C354.430084,414.150848 351.580780,407.493896 345.242188,401.749115 
	C342.671906,399.419647 340.583282,396.554504 338.306458,393.906464 
	C333.532318,388.353699 335.822021,378.238586 342.828308,376.023376 
	C344.795868,375.401276 348.393585,376.888031 349.972290,378.588043 
	C358.791473,388.084930 367.227478,397.937988 375.777710,407.683990 
	C377.746429,409.928009 379.512756,412.365448 381.610443,414.477234 
	C386.583527,419.483673 389.692993,425.384064 390.536591,433.045044 
	C390.195557,434.063110 390.041229,434.384369 390.040985,434.705780 
	C390.019135,463.195282 389.988983,491.684814 390.064758,520.174072 
	C390.068115,521.444336 391.042450,522.712036 391.564545,523.980896 
	C395.686523,537.296936 400.628845,550.426514 403.709045,563.979370 
	C407.058197,578.715515 406.665863,593.631470 396.373840,606.159485 
	C388.053192,616.287903 377.057159,620.742920 363.994659,618.076782 
	C349.486633,615.115662 341.013794,605.624451 337.499023,590.896179 
	C337.830322,558.924927 337.918823,527.648926 337.947479,496.372833 
	C337.947845,495.993622 337.178925,495.613647 336.769104,495.234009 
	C333.493500,486.940643 330.479797,485.183624 321.318359,486.433838 
	C321.318359,528.977173 321.318359,571.561218 321.318359,614.555969 
	C327.516235,615.905334 337.045135,612.282349 337.866089,623.022095 
	C338.336243,629.172607 340.684601,636.891846 330.983154,639.614380 
	C329.336151,639.207336 328.353546,638.999512 327.370850,638.999268 
	C267.011597,638.983337 206.652359,638.978333 146.293152,639.021301 
	C144.885056,639.022339 143.477356,639.580994 142.069458,639.879517 
M290.379395,500.944397 
	C290.596771,500.635925 290.814148,500.327454 291.408203,499.430389 
	C292.694855,495.929047 293.981506,492.427704 296.003357,488.704468 
	C296.324402,487.657318 296.924408,486.610626 296.925964,485.562988 
	C296.974792,453.273010 296.983093,420.982880 296.893616,388.693085 
	C296.890289,387.486969 295.847839,386.283691 295.045105,384.339905 
	C294.498138,379.290924 291.973267,375.856018 286.557220,373.671722 
	C285.612518,373.447418 284.668060,373.028198 283.723114,373.027100 
	C252.770279,372.990936 221.817368,372.977020 190.864716,373.056519 
	C189.583694,373.059814 188.305069,373.993347 186.474075,374.835266 
	C184.039291,376.731018 181.604523,378.626740 178.613480,381.253296 
	C178.408997,382.548248 178.027130,383.843048 178.025909,385.138184 
	C177.993454,419.634216 177.984863,454.130310 178.050720,488.626251 
	C178.053665,490.169983 178.793259,491.712311 179.690109,493.704010 
	C181.817780,496.220459 183.945435,498.736908 186.285690,501.989136 
	C190.500336,502.032501 194.714966,502.075867 199.865646,501.970795 
	C222.265976,502.019806 244.666290,502.068817 267.479095,502.601898 
	C268.630249,502.441101 269.781433,502.280304 271.843536,501.971680 
	C274.917908,502.018921 277.992249,502.066193 281.614227,502.648529 
	C284.406952,502.067902 287.199677,501.487244 289.983337,500.980743 
	C289.983337,500.980743 289.910400,500.964630 290.379395,500.944397 
z"/>
<path fill="#FCFCFC" opacity="1.000000" stroke="none" 
	d="
M712.308594,431.672852 
	C702.300415,423.916351 689.334717,429.575836 687.926270,442.227448 
	C687.122375,449.448761 687.156250,456.774353 687.025696,464.056793 
	C686.876465,472.382721 686.964172,480.712891 686.938843,489.041168 
	C686.938416,489.180878 686.808899,489.320190 686.605713,489.729218 
	C680.330261,489.729218 673.914917,489.729218 667.121582,489.729218 
	C667.042908,488.587555 666.883545,487.338470 666.881836,486.089203 
	C666.862000,471.597260 666.883179,457.105255 666.857361,442.613312 
	C666.841431,433.651550 662.212524,428.229187 654.467529,428.004669 
	C645.166931,427.735016 638.248108,433.280457 638.059998,442.127899 
	C637.725403,457.868164 637.965942,473.620728 637.965942,489.684113 
	C630.567749,489.684113 624.030823,489.684113 617.244507,489.684113 
	C617.244507,463.444366 617.244507,437.199036 617.244507,410.694580 
	C623.992371,410.694580 630.730774,410.694580 637.862671,410.694580 
	C637.862671,414.463104 637.862671,418.009247 637.862671,422.052856 
	C650.114502,405.609283 676.102478,403.753143 686.057617,421.853577 
	C696.255737,408.890381 713.872253,406.072998 726.266235,412.903290 
	C731.373413,415.717804 734.562805,420.081696 735.791565,425.579376 
	C736.935852,430.698730 737.814331,435.985291 737.900635,441.213257 
	C738.166565,457.325958 737.997620,473.445770 737.997620,489.779602 
	C730.716675,489.779602 723.791321,489.779602 716.425232,489.779602 
	C716.425232,474.962219 716.720093,460.185272 716.248779,445.432831 
	C716.104126,440.904175 713.862244,436.442535 712.308594,431.672852 
z"/>
<path fill="#FDFDFD" opacity="1.000000" stroke="none" 
	d="
M439.035431,380.231201 
	C440.299316,379.500580 441.535553,379.041809 442.773682,379.036652 
	C455.273285,378.984711 467.782257,378.711731 480.270264,379.096558 
	C491.438080,379.440704 502.304596,381.403839 510.945221,389.474335 
	C521.478394,399.312500 524.752014,416.097382 519.140320,431.079590 
	C514.000610,444.801910 501.898010,453.550049 486.998169,453.982910 
	C478.868530,454.219055 470.726410,454.025055 462.082886,454.025055 
	C462.082886,466.181122 462.082886,477.877777 462.082886,489.780823 
	C454.298859,489.780823 447.014374,489.780823 439.008667,489.780823 
	C439.008667,453.527893 439.008667,417.120758 439.035431,380.231201 
M463.667938,434.000427 
	C470.116028,433.674927 476.580353,433.535767 483.008179,432.977173 
	C491.219116,432.263611 497.357025,426.189331 497.992188,418.585114 
	C498.782837,409.119415 494.294739,401.801178 485.366608,400.122894 
	C477.833313,398.706757 470.031830,398.717377 461.926971,398.062347 
	C461.926971,407.398590 461.857666,415.849060 461.962372,424.297394 
	C462.002289,427.517151 462.441437,430.731934 463.667938,434.000427 
z"/>
<path fill="#FDFDFD" opacity="1.000000" stroke="none" 
	d="
M736.610474,546.194702 
	C740.879272,549.253052 744.784790,552.175232 748.713257,555.114624 
	C748.713257,542.360229 748.713257,528.892761 748.713257,515.149719 
	C755.961914,515.149719 762.690125,515.149719 770.017944,515.149719 
	C770.017944,551.550903 770.017944,588.074097 770.017944,624.916992 
	C763.452576,624.916992 756.543213,624.916992 749.223389,624.916992 
	C749.223389,621.917297 749.223389,618.673523 749.223389,615.562866 
	C744.579956,618.829956 740.522400,622.773010 735.669189,624.903931 
	C718.138489,632.601135 700.259338,623.617065 692.242615,609.586975 
	C682.874939,593.192749 683.357422,576.323303 693.051575,560.252869 
	C701.629883,546.032227 718.972778,540.729553 736.610474,546.194702 
M729.335815,562.011658 
	C720.421814,561.878052 713.390015,565.184082 709.887634,573.716675 
	C705.894714,583.444214 706.346130,593.073303 712.554199,601.852844 
	C717.604309,608.994812 727.759827,611.685669 737.099243,608.808838 
	C744.701965,606.466980 748.672119,600.474548 748.938599,590.804993 
	C749.021057,587.810364 749.053284,584.804993 748.901794,581.815063 
	C748.310608,570.147522 741.980652,563.489929 729.335815,562.011658 
z"/>
<path fill="#FDFDFD" opacity="1.000000" stroke="none" 
	d="
M779.425049,486.692200 
	C777.257080,484.724152 775.400330,482.953888 773.054077,480.716919 
	C773.054077,490.382843 773.054077,499.438660 773.054077,508.741882 
	C765.977051,508.741882 759.242432,508.741882 752.253906,508.741882 
	C752.253906,476.123352 752.253906,443.545959 752.253906,410.713928 
	C758.956665,410.713928 765.713318,410.713928 772.816162,410.713928 
	C772.816162,413.752167 772.816162,416.667603 772.816162,420.102814 
	C775.920105,417.693878 778.343201,415.236847 781.243835,413.655945 
	C799.918945,403.477783 825.778625,411.727448 833.665527,436.157013 
	C838.922485,452.440338 836.895081,468.373108 824.313904,481.341217 
	C812.696411,493.316010 793.935364,495.444397 779.425049,486.692200 
M774.937561,464.310303 
	C778.876831,473.588715 790.287109,475.961639 798.599915,473.564850 
	C806.934265,471.161835 813.145691,463.197083 813.867859,453.740173 
	C814.632446,443.727936 812.338928,434.504730 802.819031,429.723816 
	C790.121765,423.347198 776.490723,428.300995 773.248291,440.845215 
	C771.273560,448.485199 771.723145,456.159424 774.937561,464.310303 
z"/>
<path fill="#FDFDFD" opacity="1.000000" stroke="none" 
	d="
M447.032715,625.148560 
	C444.220398,625.148010 441.902039,625.148010 439.294189,625.148010 
	C439.294189,588.461182 439.294189,551.916016 439.294189,515.135986 
	C462.714996,515.135986 486.106415,515.135986 509.747314,515.135986 
	C509.747314,521.579468 509.747314,528.000000 509.747314,534.779907 
	C494.037872,534.779907 478.293854,534.779907 462.233917,534.779907 
	C462.233917,543.523193 462.233917,551.923035 462.233917,560.763184 
	C475.728760,560.763184 489.468414,560.763184 503.494995,560.763184 
	C503.494995,568.071350 503.494995,574.944580 503.494995,582.103882 
	C489.748932,582.103882 476.145996,582.103882 462.147339,582.103882 
	C462.147339,596.436768 462.147339,610.496826 462.147339,625.149048 
	C457.023682,625.149048 452.275208,625.149048 447.032715,625.148560 
z"/>
<path fill="#FBFBFB" opacity="1.000000" stroke="none" 
	d="
M536.628052,484.383118 
	C530.540405,478.244629 529.548279,470.699890 529.481934,463.013458 
	C529.332397,445.707092 529.434937,428.398560 529.434937,410.773560 
	C536.359070,410.773560 543.245850,410.773560 550.506226,410.773560 
	C550.506226,426.165466 550.500366,441.440918 550.508301,456.716370 
	C550.513550,466.756287 554.774963,472.362823 563.040955,473.242310 
	C572.453735,474.243805 580.223694,468.863770 581.932861,459.715393 
	C582.715454,455.526489 582.906006,451.185242 582.952454,446.908569 
	C583.082642,434.931763 582.997864,422.952637 582.997864,410.703461 
	C589.984863,410.703461 596.731079,410.703461 603.719482,410.703461 
	C603.719482,437.066376 603.719482,463.288452 603.719482,489.756531 
	C596.925049,489.756531 590.191528,489.756531 583.155518,489.756531 
	C583.155518,486.076813 583.155518,482.472534 583.155518,477.191498 
	C576.906372,485.449036 569.816040,490.032104 560.914795,491.495514 
	C551.815552,492.991455 543.451294,491.964691 536.628052,484.383118 
z"/>
<path fill="#FCFCFC" opacity="1.000000" stroke="none" 
	d="
M516.007080,603.675781 
	C516.005615,584.401672 516.005615,565.591614 516.005615,546.459290 
	C522.841003,546.459290 529.572998,546.459290 536.995544,546.459290 
	C536.995544,549.695862 536.995544,553.118286 536.995544,556.540649 
	C536.995483,568.694885 536.987915,580.849121 536.997620,593.003357 
	C537.005737,603.186951 542.288574,608.534973 551.530701,609.122681 
	C560.295288,609.680054 568.966309,602.465088 568.992188,592.731750 
	C569.032898,577.418640 569.002991,562.105408 569.002991,546.465027 
	C576.181091,546.465027 583.232788,546.465027 590.594604,546.465027 
	C590.594604,572.486267 590.594604,598.530701 590.594604,624.882935 
	C583.621704,624.882935 576.574402,624.882935 569.106384,624.882935 
	C569.106384,621.371277 569.106384,617.799072 569.106384,612.871643 
	C558.864868,626.338928 546.093445,629.903320 531.602295,625.530151 
	C521.621582,622.518250 517.025452,614.328735 516.007080,603.675781 
z"/>
<path fill="#FCFCFC" opacity="1.000000" stroke="none" 
	d="
M603.766968,593.999268 
	C603.765991,577.863525 603.765991,562.227783 603.765991,546.371521 
	C610.440002,546.371521 616.859131,546.371521 623.704224,546.371521 
	C623.704224,550.030029 623.704224,553.762024 623.704224,558.797852 
	C626.089844,556.149231 627.482056,554.191101 629.262634,552.695251 
	C638.999695,544.514587 650.143433,542.961182 661.808167,547.164673 
	C672.824158,551.134399 676.419922,560.900574 676.808899,571.300232 
	C677.473267,589.065552 676.992188,606.873718 676.992188,624.920715 
	C669.671143,624.920715 662.630005,624.920715 655.221436,624.920715 
	C655.221436,609.692139 655.283813,594.580566 655.197021,579.469788 
	C655.148376,570.998840 652.112976,565.892212 645.430908,564.051453 
	C635.023865,561.184509 624.363953,567.339355 624.064636,581.138855 
	C623.750916,595.601807 623.994507,610.076843 623.994507,624.853394 
	C617.256409,624.853394 610.708923,624.853394 603.768005,624.853394 
	C603.768005,614.743469 603.768005,604.621338 603.766968,593.999268 
z"/>
<path fill="#FDFDFD" opacity="1.000000" stroke="none" 
	d="
M799.949158,608.244141 
	C805.886047,610.845703 811.738647,612.396423 817.524170,609.868225 
	C820.045227,608.766602 822.944336,606.227173 823.547058,603.810669 
	C823.982422,602.065430 821.400146,598.561279 819.301575,597.401306 
	C815.038269,595.044861 810.137146,593.873352 805.599121,591.974121 
	C800.609131,589.885559 795.286987,588.177429 790.888794,585.165588 
	C777.614868,576.075684 780.768127,552.484680 797.601990,546.962952 
	C809.995178,542.897888 825.786865,541.921509 842.878113,552.531311 
	C839.030518,557.055664 835.209778,561.548279 831.274963,566.175110 
	C824.733032,561.224915 817.558228,559.471924 809.863892,562.050415 
	C807.932129,562.697876 805.498169,565.019958 805.305908,566.790833 
	C805.114075,568.557007 807.014038,571.586304 808.747437,572.343323 
	C815.636169,575.351807 822.877930,577.537720 829.878418,580.307739 
	C841.550903,584.926636 845.618713,595.379333 844.865601,605.606812 
	C844.274597,613.632385 841.081909,621.465454 826.569885,625.311646 
	C810.862793,629.474609 796.346985,626.177551 782.645996,618.084961 
	C781.973328,617.687622 781.462646,617.016174 780.650024,616.262268 
	C784.607361,611.773804 788.428955,607.439392 792.063660,603.316833 
	C794.714905,604.984436 797.159729,606.522278 799.949158,608.244141 
z"/>
<path fill="#46BD62" opacity="1.000000" stroke="none" 
	d="
M155.641205,362.124390 
	C155.300201,372.648529 154.110382,383.380219 154.085220,394.114624 
	C153.918564,465.205078 154.004456,536.296082 153.989624,607.386963 
	C153.989212,609.369263 153.780884,611.351624 153.389267,613.632874 
	C153.075668,550.939758 153.040665,487.947723 153.010040,424.955658 
	C153.001862,408.124084 152.860550,391.290344 153.112244,374.462555 
	C153.172867,370.409271 154.556137,366.375763 155.641205,362.124390 
z"/>
<path fill="#46BD62" opacity="1.000000" stroke="none" 
	d="
M353.707550,586.466614 
	C353.173157,585.243713 352.091827,583.560791 352.085449,581.873779 
	C351.980652,554.076782 352.106110,526.278625 351.922211,498.482391 
	C351.889771,493.575500 350.692047,488.676300 350.028290,483.353455 
	C351.211151,488.525055 353.352417,494.104462 353.424835,499.710602 
	C353.796387,528.471558 353.635590,557.239319 353.707550,586.466614 
z"/>
<path fill="#46BD62" opacity="1.000000" stroke="none" 
	d="
M142.529846,639.938354 
	C143.477356,639.580994 144.885056,639.022339 146.293152,639.021301 
	C206.652359,638.978333 267.011597,638.983337 327.370850,638.999268 
	C328.353546,638.999512 329.336151,639.207336 330.619659,639.594727 
	C298.267090,639.926575 265.613678,640.007141 232.960236,640.030273 
	C202.970245,640.051453 172.980225,640.010620 142.529846,639.938354 
z"/>
<path fill="#46BD62" opacity="1.000000" stroke="none" 
	d="
M298.495544,348.019592 
	C297.562653,348.384857 296.166779,348.972321 294.770142,348.974060 
	C255.714630,349.022827 216.659042,349.014740 177.603455,348.997650 
	C176.621811,348.997223 175.640274,348.789429 174.362839,348.393494 
	C199.891754,348.044464 225.716476,347.960724 251.541275,347.923431 
	C267.038177,347.901062 282.535248,347.951233 298.495544,348.019592 
z"/>
<path fill="#46BD62" opacity="1.000000" stroke="none" 
	d="
M336.780792,495.685791 
	C337.178925,495.613647 337.947845,495.993622 337.947479,496.372833 
	C337.918823,527.648926 337.830322,558.924927 337.507385,590.519653 
	C337.099335,584.556091 336.795990,578.273987 336.784485,571.991394 
	C336.738129,546.706909 336.781982,521.422180 336.780792,495.685791 
z"/>
<path fill="#46BD62" opacity="1.000000" stroke="none" 
	d="
M391.494873,523.513916 
	C391.042450,522.712036 390.068115,521.444336 390.064758,520.174072 
	C389.988983,491.684814 390.019135,463.195282 390.040985,434.705780 
	C390.041229,434.384369 390.195557,434.063110 390.536255,433.431885 
	C390.863525,460.440521 390.921417,487.759125 391.019073,515.077576 
	C391.028564,517.734497 391.283966,520.390503 391.494873,523.513916 
z"/>
<path fill="#46BD62" opacity="1.000000" stroke="none" 
	d="
M373.815033,469.215332 
	C374.186768,469.580536 374.933594,470.444305 374.932526,471.307159 
	C374.911682,487.972046 374.803253,504.636841 374.438324,521.602356 
	C374.056458,504.506561 373.949188,487.110016 373.815033,469.215332 
z"/>
<path fill="#46BD62" opacity="1.000000" stroke="none" 
	d="
M320.902069,376.504700 
	C320.675751,375.153015 320.493622,373.388306 320.550903,371.372192 
	C320.842285,372.777771 320.894257,374.434692 320.902069,376.504700 
z"/>
<path fill="#46BD62" opacity="1.000000" stroke="none" 
	d="
M349.983337,482.673035 
	C349.383087,482.195343 348.706207,481.411469 348.038971,480.263306 
	C348.667969,480.721649 349.287323,481.544250 349.983337,482.673035 
z"/>
<path fill="#46BD62" opacity="1.000000" stroke="none" 
	d="
M345.077271,476.613892 
	C344.451355,476.468628 343.772766,476.012573 343.073517,475.215485 
	C343.710114,475.350677 344.367371,475.826874 345.077271,476.613892 
z"/>
<path fill="#46BD62" opacity="1.000000" stroke="none" 
	d="
M156.680878,360.058350 
	C156.782913,360.492981 156.612320,361.085480 156.167114,361.835999 
	C156.064423,361.401428 156.236343,360.808807 156.680878,360.058350 
z"/>
<path fill="#46BD62" opacity="1.000000" stroke="none" 
	d="
M342.941223,474.671326 
	C342.513031,474.784698 341.926666,474.616394 341.178345,474.180481 
	C341.605286,474.071808 342.194153,474.230743 342.941223,474.671326 
z"/>
<path fill="#46BD62" opacity="1.000000" stroke="none" 
	d="
M348.017365,479.718018 
	C347.813019,479.790405 347.525726,479.594971 347.128418,479.158081 
	C347.323761,479.094482 347.629089,479.272308 348.017365,479.718018 
z"/>
<path fill="#46BD62" opacity="1.000000" stroke="none" 
	d="
M347.051208,478.686218 
	C346.803131,478.786407 346.516693,478.594604 346.127625,478.160156 
	C346.354248,478.076385 346.683533,478.235321 347.051208,478.686218 
z"/>
<path fill="#46BD62" opacity="1.000000" stroke="none" 
	d="
M346.062927,477.676239 
	C345.798065,477.782257 345.512726,477.590210 345.125427,477.155731 
	C345.363068,477.068268 345.702759,477.223236 346.062927,477.676239 
z"/>
<path fill="#46BD62" opacity="1.000000" stroke="none" 
	d="
M341.030334,473.641113 
	C340.749573,473.746368 340.426392,473.518951 339.927307,473.039825 
	C340.163605,472.961517 340.575775,473.134979 341.030334,473.641113 
z"/>
<path fill="#46BD62" opacity="1.000000" stroke="none" 
	d="
M320.875458,468.714294 
	C320.841125,468.929840 320.492493,468.630859 320.492493,468.630859 
	C320.492493,468.630859 320.571411,468.216278 320.711761,468.141174 
	C320.852112,468.066101 320.909790,468.498779 320.875458,468.714294 
z"/>
<path fill="#46BD62" opacity="1.000000" stroke="none" 
	d="
M157.091797,359.297577 
	C157.308258,359.280365 157.427795,359.468719 157.509201,359.672333 
	C157.519577,359.698242 157.330597,359.803894 157.058701,359.921631 
	C156.883438,359.970612 156.983139,359.507843 157.091797,359.297577 
z"/>
<path fill="#050605" opacity="1.000000" stroke="none" 
	d="
M286.969513,374.444031 
	C291.973267,375.856018 294.498138,379.290924 295.117371,385.169861 
	C295.215790,420.308655 295.241974,454.617493 295.268127,488.926331 
	C293.981506,492.427704 292.694855,495.929047 290.988220,499.822937 
	C290.348969,500.465210 290.129700,500.714935 289.910400,500.964661 
	C289.910400,500.964630 289.983337,500.980743 289.580261,500.990356 
	C286.473694,501.371124 283.770142,501.742279 281.066620,502.113464 
	C277.992249,502.066193 274.917908,502.018921 271.002686,502.007080 
	C269.130066,502.067627 268.098358,502.092712 267.066620,502.117859 
	C244.666290,502.068817 222.265976,502.019806 198.949326,502.006073 
	C194.046371,501.778687 190.059723,501.516022 186.073090,501.253357 
	C183.945435,498.736908 181.817780,496.220459 179.379974,492.981995 
	C179.103119,455.014130 179.136429,417.768311 179.169739,380.522491 
	C181.604523,378.626740 184.039291,376.731018 187.210480,374.558899 
	C188.936646,374.199646 189.926392,374.044952 190.916214,374.044281 
	C221.618378,374.023376 252.320541,374.012177 283.022705,374.027863 
	C284.338379,374.028534 285.653900,374.299164 286.969513,374.444031 
M212.473969,408.105194 
	C212.257248,408.395172 212.040527,408.685181 211.373428,409.163452 
	C211.104889,409.392914 210.982559,409.683838 210.583389,410.423492 
	C210.370270,410.947693 210.157150,411.471893 210.003357,411.994629 
	C210.003357,411.994629 209.977783,411.941071 209.431396,412.452942 
	C209.216461,413.438812 209.001526,414.424713 208.852173,415.501404 
	C208.852173,415.501404 208.947754,415.443024 208.341019,415.820160 
	C208.274902,416.517883 208.208786,417.215607 208.007202,418.627930 
	C208.061752,419.107239 208.116302,419.586517 207.764236,420.511627 
	C207.905701,421.650574 208.047165,422.789551 208.040039,424.491852 
	C208.066391,424.684296 208.092728,424.876709 208.021912,425.797333 
	C208.669312,427.560242 209.316696,429.323120 209.982742,431.015167 
	C209.982742,431.015167 209.909912,431.007172 209.982147,431.610168 
	C210.310043,432.103180 210.637939,432.596222 210.976807,433.015686 
	C210.976807,433.015686 210.905533,433.036865 211.068436,433.637177 
	C211.681473,434.135376 212.294510,434.633606 212.967987,435.085907 
	C212.967987,435.085907 212.916885,435.029755 212.920959,435.630341 
	C213.273483,435.783997 213.626007,435.937653 213.920410,436.019592 
	C213.920410,436.019592 213.853287,436.082916 214.005508,436.682373 
	C214.661179,437.146149 215.316849,437.609955 215.988129,438.006104 
	C215.988129,438.006104 215.923569,438.031525 216.339935,438.556519 
	C217.546738,439.132050 218.753540,439.707581 220.432861,440.805756 
	C222.963486,441.613586 225.488617,442.439178 228.025833,443.225739 
	C234.045959,445.092010 240.226379,446.555176 246.054352,448.897064 
	C252.630447,451.539673 253.350433,459.500580 247.191940,462.996582 
	C243.982269,464.818604 239.665237,465.394775 235.867722,465.333618 
	C227.281281,465.195374 219.313171,462.568542 212.514908,456.597351 
	C209.692810,461.579041 207.213776,465.955139 204.219025,471.241608 
	C213.731873,474.005798 222.403915,476.525635 230.987488,479.942841 
	C231.318008,483.272217 231.648514,486.601593 232.530472,489.983582 
	C232.711166,489.945618 232.891861,489.907654 233.976257,489.964264 
	C236.891174,489.964264 239.806107,489.964264 242.776627,489.964264 
	C242.885544,488.768524 242.996399,488.129608 242.992569,487.491394 
	C242.977707,485.015991 242.926361,482.540802 243.225037,479.384308 
	C245.562958,478.626923 247.872940,477.765350 250.243546,477.129883 
	C261.377899,474.145203 268.471558,465.555511 268.659790,454.729828 
	C268.824493,445.256195 262.113434,437.328735 251.077576,434.029663 
	C245.395737,432.331116 239.692307,430.704803 234.014587,428.251343 
	C236.326721,422.046509 232.636398,417.962921 229.475479,413.314972 
	C239.758316,410.466125 249.128296,413.277008 258.391785,418.281738 
	C261.386475,414.393799 264.292267,410.621246 268.133423,405.634338 
	C259.222870,403.273285 251.152039,401.134735 243.008835,398.074829 
	C243.008835,394.668213 243.008835,391.261627 243.008835,387.794006 
	C238.730011,387.794006 234.921387,387.794006 230.917480,387.794006 
	C230.917480,391.797760 230.917480,395.403412 230.994263,398.989594 
	C230.994263,398.989594 230.972015,398.913544 230.202332,399.092072 
	C226.613052,400.378235 223.023788,401.664398 219.209534,402.820709 
	C219.209534,402.820709 219.006516,402.982788 218.393112,403.107941 
	C217.879379,403.707947 217.365646,404.307953 216.920959,404.977264 
	C216.920959,404.977264 216.985016,404.903320 216.345169,404.825897 
	C215.861145,405.198761 215.377136,405.571655 214.965332,405.971161 
	C214.965332,405.971161 214.980591,405.895691 214.445648,406.050354 
	C214.265778,406.360901 214.085892,406.671448 213.984619,406.984222 
	C213.984619,406.984222 213.980667,406.905701 213.450165,407.056793 
	C213.266281,407.365906 213.082413,407.675018 212.985779,407.991638 
	C212.985779,407.991638 212.988831,407.904114 212.473969,408.105194 
z"/>
<path fill="#46BD62" opacity="1.000000" stroke="none" 
	d="
M295.635742,488.815399 
	C295.241974,454.617493 295.215790,420.308655 295.239624,385.539459 
	C295.847839,386.283691 296.890289,387.486969 296.893616,388.693085 
	C296.983093,420.982880 296.974792,453.273010 296.925964,485.562988 
	C296.924408,486.610626 296.324402,487.657318 295.635742,488.815399 
z"/>
<path fill="#46BD62" opacity="1.000000" stroke="none" 
	d="
M178.891602,380.887878 
	C179.136429,417.768311 179.103119,455.014130 179.129791,492.757629 
	C178.793259,491.712311 178.053665,490.169983 178.050720,488.626251 
	C177.984863,454.130310 177.993454,419.634216 178.025909,385.138184 
	C178.027130,383.843048 178.408997,382.548248 178.891602,380.887878 
z"/>
<path fill="#46BD62" opacity="1.000000" stroke="none" 
	d="
M286.763367,374.057861 
	C285.653900,374.299164 284.338379,374.028534 283.022705,374.027863 
	C252.320541,374.012177 221.618378,374.023376 190.916214,374.044281 
	C189.926392,374.044952 188.936646,374.199646 187.486099,374.388000 
	C188.305069,373.993347 189.583694,373.059814 190.864716,373.056519 
	C221.817368,372.977020 252.770279,372.990936 283.723114,373.027100 
	C284.668060,373.028198 285.612518,373.447418 286.763367,374.057861 
z"/>
<path fill="#46BD62" opacity="1.000000" stroke="none" 
	d="
M186.179382,501.621246 
	C190.059723,501.516022 194.046371,501.778687 198.481308,502.080322 
	C194.714966,502.075867 190.500336,502.032501 186.179382,501.621246 
z"/>
<path fill="#46BD62" opacity="1.000000" stroke="none" 
	d="
M281.340424,502.380981 
	C283.770142,501.742279 286.473694,501.371124 289.584778,500.953278 
	C287.199677,501.487244 284.406952,502.067902 281.340424,502.380981 
z"/>
<path fill="#46BD62" opacity="1.000000" stroke="none" 
	d="
M267.272858,502.359863 
	C268.098358,502.092712 269.130066,502.067627 270.547180,502.080994 
	C269.781433,502.280304 268.630249,502.441101 267.272858,502.359863 
z"/>
<path fill="#46BD62" opacity="1.000000" stroke="none" 
	d="
M290.144897,500.954529 
	C290.129700,500.714935 290.348969,500.465210 290.799866,500.117249 
	C290.814148,500.327454 290.596771,500.635925 290.144897,500.954529 
z"/>
<path fill="#050605" opacity="1.000000" stroke="none" 
	d="
M463.183289,433.974731 
	C462.441437,430.731934 462.002289,427.517151 461.962372,424.297394 
	C461.857666,415.849060 461.926971,407.398590 461.926971,398.062347 
	C470.031830,398.717377 477.833313,398.706757 485.366608,400.122894 
	C494.294739,401.801178 498.782837,409.119415 497.992188,418.585114 
	C497.357025,426.189331 491.219116,432.263611 483.008179,432.977173 
	C476.580353,433.535767 470.116028,433.674927 463.183289,433.974731 
z"/>
<path fill="#060706" opacity="1.000000" stroke="none" 
	d="
M729.772949,562.021484 
	C741.980652,563.489929 748.310608,570.147522 748.901794,581.815063 
	C749.053284,584.804993 749.021057,587.810364 748.938599,590.804993 
	C748.672119,600.474548 744.701965,606.466980 737.099243,608.808838 
	C727.759827,611.685669 717.604309,608.994812 712.554199,601.852844 
	C706.346130,593.073303 705.894714,583.444214 709.887634,573.716675 
	C713.390015,565.184082 720.421814,561.878052 729.772949,562.021484 
z"/>
<path fill="#060706" opacity="1.000000" stroke="none" 
	d="
M774.768005,463.955566 
	C771.723145,456.159424 771.273560,448.485199 773.248291,440.845215 
	C776.490723,428.300995 790.121765,423.347198 802.819031,429.723816 
	C812.338928,434.504730 814.632446,443.727936 813.867859,453.740173 
	C813.145691,463.197083 806.934265,471.161835 798.599915,473.564850 
	C790.287109,475.961639 778.876831,473.588715 774.768005,463.955566 
z"/>
<path fill="#3A9851" opacity="1.000000" stroke="none" 
	d="
M231.075974,479.045471 
	C222.403915,476.525635 213.731873,474.005798 204.219025,471.241608 
	C207.213776,465.955139 209.692810,461.579041 212.514908,456.597351 
	C219.313171,462.568542 227.281281,465.195374 235.867722,465.333618 
	C239.665237,465.394775 243.982269,464.818604 247.191940,462.996582 
	C253.350433,459.500580 252.630447,451.539673 246.054352,448.897064 
	C240.226379,446.555176 234.045959,445.092010 228.025833,443.225739 
	C225.488617,442.439178 222.963486,441.613586 220.085693,440.196106 
	C218.466858,439.068176 217.195221,438.549866 215.923569,438.031525 
	C215.923569,438.031525 215.988129,438.006104 215.948822,437.703308 
	C215.224091,436.961304 214.538681,436.522125 213.853271,436.082947 
	C213.853287,436.082916 213.920410,436.019592 213.842560,435.816162 
	C213.482117,435.418427 213.199493,435.224091 212.916870,435.029755 
	C212.916885,435.029755 212.967987,435.085907 212.925415,434.770172 
	C212.223755,433.981903 211.564636,433.509399 210.905533,433.036865 
	C210.905533,433.036865 210.976807,433.015686 210.943649,432.737823 
	C210.576965,431.975708 210.243439,431.491425 209.909912,431.007172 
	C209.909912,431.007172 209.982742,431.015167 209.972260,430.672028 
	C209.347534,428.575623 208.733307,426.822357 208.119080,425.069092 
	C208.092728,424.876709 208.066391,424.684296 208.424789,424.132812 
	C208.596634,422.537811 208.383743,421.301819 208.170837,420.065826 
	C208.116302,419.586517 208.061752,419.107239 208.310394,418.028442 
	C208.724991,416.766968 208.836365,416.104980 208.947754,415.443024 
	C208.947754,415.443024 208.852173,415.501404 209.084412,415.171265 
	C209.537018,413.874420 209.757401,412.907745 209.977783,411.941071 
	C209.977783,411.941071 210.003357,411.994629 210.228119,411.843719 
	C210.637405,411.140625 210.821915,410.588409 211.006439,410.036224 
	C210.982559,409.683838 211.104889,409.392914 211.854675,408.966217 
	C212.553558,408.480682 212.771194,408.192383 212.988831,407.904114 
	C212.988831,407.904114 212.985779,407.991638 213.188965,407.883606 
	C213.588348,407.485626 213.784515,407.195679 213.980682,406.905701 
	C213.980667,406.905701 213.984619,406.984222 214.190704,406.876648 
	C214.591385,406.477936 214.785995,406.186829 214.980591,405.895691 
	C214.980591,405.895691 214.965332,405.971161 215.246552,405.952820 
	C216.013519,405.590759 216.499268,405.247040 216.985016,404.903320 
	C216.985016,404.903320 216.920959,404.977264 217.221771,404.930878 
	C218.017212,404.250610 218.511871,403.616699 219.006531,402.982788 
	C219.006516,402.982788 219.209534,402.820709 219.761780,402.886597 
	C223.866699,401.606171 227.419357,400.259857 230.972015,398.913544 
	C230.972015,398.913544 230.994263,398.989594 231.266724,398.727478 
	C231.701111,396.524017 231.709335,394.551849 232.090210,392.654480 
	C232.278732,391.715302 232.963379,390.445740 233.748825,390.126862 
	C238.461716,388.213593 241.716400,390.425293 242.037766,395.420197 
	C242.115585,396.629578 242.719315,397.805115 243.081207,398.996216 
	C251.152039,401.134735 259.222870,403.273285 268.133423,405.634338 
	C264.292267,410.621246 261.386475,414.393799 258.391785,418.281738 
	C249.128296,413.277008 239.758316,410.466125 228.919342,413.650513 
	C227.900558,414.291229 227.437943,414.596436 226.726868,414.997986 
	C226.289856,415.385742 226.101273,415.677155 225.950317,415.975952 
	C225.987946,415.983307 225.947968,415.917908 225.625107,416.101624 
	C225.155365,418.553467 225.008484,420.821655 224.827759,423.076996 
	C224.793945,423.064178 224.763519,423.129822 224.741226,423.448059 
	C225.125992,424.232361 225.533051,424.698395 226.046112,425.435486 
	C226.955399,426.182190 227.758698,426.657867 228.783966,427.375458 
	C230.001114,427.992950 230.996277,428.368561 232.318481,428.836426 
	C233.096542,428.967712 233.547577,429.006805 233.998627,429.045868 
	C239.692307,430.704803 245.395737,432.331116 251.077576,434.029663 
	C262.113434,437.328735 268.824493,445.256195 268.659790,454.729828 
	C268.471558,465.555511 261.377899,474.145203 250.243546,477.129883 
	C247.872940,477.765350 245.562958,478.626923 242.780136,480.012787 
	C243.039795,487.002563 240.654587,490.314270 233.830566,489.304016 
	C233.610641,489.271423 233.326706,489.671387 233.072586,489.869690 
	C232.891861,489.907654 232.711166,489.945618 232.274216,489.510406 
	C231.703964,485.706635 231.389969,482.376068 231.075974,479.045471 
z"/>
<path fill="#060706" opacity="1.000000" stroke="none" 
	d="
M234.006607,428.648621 
	C233.547577,429.006805 233.096542,428.967712 232.227798,428.493591 
	C230.727402,427.750214 229.644684,427.441895 228.561981,427.133545 
	C227.758698,426.657867 226.955399,426.182190 226.039749,425.107666 
	C225.539444,424.049103 225.151489,423.589447 224.763519,423.129822 
	C224.763519,423.129822 224.793945,423.064178 224.870651,422.666687 
	C225.280899,420.152100 225.614441,418.035004 225.947968,415.917908 
	C225.947968,415.917908 225.987946,415.983307 226.190796,415.869019 
	C226.587540,415.470398 226.781418,415.186005 226.975311,414.901611 
	C227.437943,414.596436 227.900558,414.291229 228.649948,413.934357 
	C232.636398,417.962921 236.326721,422.046509 234.006607,428.648621 
z"/>
<path fill="#46BD62" opacity="1.000000" stroke="none" 
	d="
M243.045013,398.535522 
	C242.719315,397.805115 242.115585,396.629578 242.037766,395.420197 
	C241.716400,390.425293 238.461716,388.213593 233.748825,390.126862 
	C232.963379,390.445740 232.278732,391.715302 232.090210,392.654480 
	C231.709335,394.551849 231.701111,396.524017 231.228333,398.737183 
	C230.917480,395.403412 230.917480,391.797760 230.917480,387.794006 
	C234.921387,387.794006 238.730011,387.794006 243.008835,387.794006 
	C243.008835,391.261627 243.008835,394.668213 243.045013,398.535522 
z"/>
<path fill="#46BD62" opacity="1.000000" stroke="none" 
	d="
M233.524429,489.916992 
	C233.326706,489.671387 233.610641,489.271423 233.830566,489.304016 
	C240.654587,490.314270 243.039795,487.002563 242.611938,480.353394 
	C242.926361,482.540802 242.977707,485.015991 242.992569,487.491394 
	C242.996399,488.129608 242.885544,488.768524 242.776627,489.964264 
	C239.806107,489.964264 236.891174,489.964264 233.524429,489.916992 
z"/>
<path fill="#46BD62" opacity="1.000000" stroke="none" 
	d="
M230.587173,399.002808 
	C227.419357,400.259857 223.866699,401.606171 219.874268,402.951538 
	C223.023788,401.664398 226.613052,400.378235 230.587173,399.002808 
z"/>
<path fill="#46BD62" opacity="1.000000" stroke="none" 
	d="
M207.967529,420.288727 
	C208.383743,421.301819 208.596634,422.537811 208.499084,423.851135 
	C208.047165,422.789551 207.905701,421.650574 207.967529,420.288727 
z"/>
<path fill="#46BD62" opacity="1.000000" stroke="none" 
	d="
M231.031738,479.494141 
	C231.389969,482.376068 231.703964,485.706635 231.998505,489.484100 
	C231.648514,486.601593 231.318008,483.272217 231.031738,479.494141 
z"/>
<path fill="#46BD62" opacity="1.000000" stroke="none" 
	d="
M208.070496,425.433228 
	C208.733307,426.822357 209.347534,428.575623 209.962921,430.707458 
	C209.316696,429.323120 208.669312,427.560242 208.070496,425.433228 
z"/>
<path fill="#46BD62" opacity="1.000000" stroke="none" 
	d="
M216.131744,438.294006 
	C217.195221,438.549866 218.466858,439.068176 219.849426,439.934814 
	C218.753540,439.707581 217.546738,439.132050 216.131744,438.294006 
z"/>
<path fill="#46BD62" opacity="1.000000" stroke="none" 
	d="
M210.986984,433.337036 
	C211.564636,433.509399 212.223755,433.981903 212.895203,434.793121 
	C212.294510,434.633606 211.681473,434.135376 210.986984,433.337036 
z"/>
<path fill="#46BD62" opacity="1.000000" stroke="none" 
	d="
M213.929382,436.382660 
	C214.538681,436.522125 215.224091,436.961304 215.941010,437.737122 
	C215.316849,437.609955 214.661179,437.146149 213.929382,436.382660 
z"/>
<path fill="#46BD62" opacity="1.000000" stroke="none" 
	d="
M218.699829,403.045349 
	C218.511871,403.616699 218.017212,404.250610 217.187225,404.896240 
	C217.365646,404.307953 217.879379,403.707947 218.699829,403.045349 
z"/>
<path fill="#46BD62" opacity="1.000000" stroke="none" 
	d="
M209.704590,412.197021 
	C209.757401,412.907745 209.537018,413.874420 209.051605,415.125854 
	C209.001526,414.424713 209.216461,413.438812 209.704590,412.197021 
z"/>
<path fill="#46BD62" opacity="1.000000" stroke="none" 
	d="
M210.794907,410.229858 
	C210.821915,410.588409 210.637405,411.140625 210.198456,411.844452 
	C210.157150,411.471893 210.370270,410.947693 210.794907,410.229858 
z"/>
<path fill="#46BD62" opacity="1.000000" stroke="none" 
	d="
M216.665100,404.864624 
	C216.499268,405.247040 216.013519,405.590759 215.210449,405.939514 
	C215.377136,405.571655 215.861145,405.198761 216.665100,404.864624 
z"/>
<path fill="#46BD62" opacity="1.000000" stroke="none" 
	d="
M209.946030,431.308655 
	C210.243439,431.491425 210.576965,431.975708 210.938171,432.774597 
	C210.637939,432.596222 210.310043,432.103180 209.946030,431.308655 
z"/>
<path fill="#46BD62" opacity="1.000000" stroke="none" 
	d="
M208.644379,415.631592 
	C208.836365,416.104980 208.724991,416.766968 208.378143,417.671143 
	C208.208786,417.215607 208.274902,416.517883 208.644379,415.631592 
z"/>
<path fill="#46BD62" opacity="1.000000" stroke="none" 
	d="
M212.918915,435.330048 
	C213.199493,435.224091 213.482117,435.418427 213.871613,435.852020 
	C213.626007,435.937653 213.273483,435.783997 212.918915,435.330048 
z"/>
<path fill="#46BD62" opacity="1.000000" stroke="none" 
	d="
M214.713120,405.973022 
	C214.785995,406.186829 214.591385,406.477936 214.151398,406.875549 
	C214.085892,406.671448 214.265778,406.360901 214.713120,405.973022 
z"/>
<path fill="#46BD62" opacity="1.000000" stroke="none" 
	d="
M213.715424,406.981262 
	C213.784515,407.195679 213.588348,407.485626 213.145355,407.879852 
	C213.082413,407.675018 213.266281,407.365906 213.715424,406.981262 
z"/>
<path fill="#46BD62" opacity="1.000000" stroke="none" 
	d="
M212.731400,408.004639 
	C212.771194,408.192383 212.553558,408.480682 212.079865,408.872070 
	C212.040527,408.685181 212.257248,408.395172 212.731400,408.004639 
z"/>
<path fill="#050605" opacity="1.000000" stroke="none" 
	d="
M225.625122,416.101624 
	C225.614441,418.035004 225.280899,420.152100 224.904480,422.679504 
	C225.008484,420.821655 225.155365,418.553467 225.625122,416.101624 
z"/>
<path fill="#050605" opacity="1.000000" stroke="none" 
	d="
M228.783966,427.375458 
	C229.644684,427.441895 230.727402,427.750214 231.900787,428.401367 
	C230.996277,428.368561 230.001114,427.992950 228.783966,427.375458 
z"/>
<path fill="#050605" opacity="1.000000" stroke="none" 
	d="
M224.741241,423.448059 
	C225.151489,423.589447 225.539444,424.049103 225.933746,424.836609 
	C225.533051,424.698395 225.125992,424.232361 224.741241,423.448059 
z"/>
<path fill="#050605" opacity="1.000000" stroke="none" 
	d="
M226.726868,414.997986 
	C226.781418,415.186005 226.587540,415.470398 226.153168,415.861664 
	C226.101273,415.677155 226.289856,415.385742 226.726868,414.997986 
z"/>
</svg>